<svg width="43" height="27" viewBox="0 0 43 27" fill="none" xmlns="http://www.w3.org/2000/svg">
<path d="M28.8759 26.7733L13.4279 26.7674C9.91666 26.7832 6.54056 25.4224 4.03099 22.9797C2.79924 21.7922 1.81991 20.3706 1.15112 18.7993C0.48232 17.2281 0.137695 15.5392 0.137695 13.833C0.137695 12.1267 0.48232 10.4378 1.15112 8.86661C1.81991 7.29537 2.79924 5.87379 4.03099 4.68624C6.54038 2.24389 9.91603 0.883095 13.4269 0.898571H28.8749C32.3855 0.882927 35.7609 2.24376 38.2698 4.68624C39.5009 5.87464 40.4797 7.29679 41.1481 8.86838C41.8165 10.44 42.1609 12.129 42.1609 13.8355C42.1609 15.5419 41.8165 17.2309 41.1481 18.8025C40.4797 20.3741 39.5009 21.7963 38.2698 22.9847C35.7615 25.4276 32.3864 26.7889 28.8759 26.7733ZM13.7741 5.46149C11.5171 5.43919 9.34341 6.30844 7.73006 7.87848C6.11672 9.44851 5.1955 11.5911 5.16858 13.836C5.19524 16.0812 6.11607 18.2243 7.72911 19.7951C9.34216 21.366 11.5157 22.2364 13.7731 22.2154H28.5267C30.7839 22.2359 32.9572 21.3653 34.5701 19.7945C36.183 18.2238 37.104 16.081 37.1312 13.836C37.103 11.592 36.1813 9.45079 34.5684 7.88169C32.9554 6.3126 30.7828 5.44369 28.5267 5.46547L13.7741 5.46149Z" fill="#B84F3C"/>
</svg>
